<svg width="55" height="51" viewBox="0 0 55 51" fill="none" xmlns="http://www.w3.org/2000/svg">
<circle cx="24.7327" cy="25.4426" r="23.2487" stroke="url(#paint0_linear_1965_9109)" stroke-width="2.96793"/>
<path fill-rule="evenodd" clip-rule="evenodd" d="M51.3711 22.4412L54.1217 37.2373L50.0855 39.3483L51.3711 22.4412ZM51.0149 18.7624V19.0368H47.8127C47.8945 18.5687 48.8613 18.7624 49.2766 18.7624C49.856 18.7624 50.4355 18.7624 51.0149 18.7624ZM39.9437 19.0368C40.0408 18.78 39.7636 18.9254 40.2448 18.7925L47.1719 18.7624V19.0368H39.9437ZM36.5585 18.8538C38.0321 18.7198 37.9168 18.7624 39.4864 18.7624V19.0368L36.5585 18.8538ZM40.2181 18.3051C40.2147 15.7749 40.5635 11.9154 43.743 11.7245C47.1202 11.5223 47.1719 15.7243 47.1662 18.3051H40.2181ZM42.6097 11.0496C43.2527 10.736 43.9327 10.5605 44.6809 10.823C45.7761 11.207 46.2487 11.5348 46.7577 12.5084L46.8208 12.6311C46.9367 12.9476 46.8469 12.9322 46.7992 13.0055C46.5532 12.6061 46.0942 12.0551 45.671 11.8461C44.6593 11.3547 43.4612 10.9633 42.3955 11.6075C42.0387 11.8023 41.2008 12.4249 41.1332 12.4499L41.8234 11.5989C42.0649 11.3013 42.2631 11.2195 42.6097 11.0502V11.0496ZM39.4864 18.3051L36.3989 18.3068C36.1881 18.5965 36.12 19.7105 36.0274 20.0627C35.8172 20.8631 35.3951 21.3244 36.5585 21.3244L36.8954 19.5077L39.3035 19.4946C39.3035 21.0318 37.9611 22.8798 39.7608 22.8798L39.9176 19.4929L47.1719 19.4946L47.1514 22.8798C48.5813 22.8798 47.9036 20.9722 47.9036 19.4946H50.74L49.3306 39.5295L33.3279 37.5174L34.2186 32.8529L33.4909 32.5177L32.4258 37.9735C34.3658 38.311 36.6585 38.382 38.4258 38.762C40.2965 39.1648 42.5352 39.1301 44.394 39.5647C45.2529 39.7652 49.7833 40.2492 50.473 39.905C51.5898 39.3483 54.0973 38.2059 54.9999 37.5696L51.5313 18.2931L47.8127 18.3039C47.8127 15.0006 47.9922 10.4628 43.693 10.4316C41.9274 10.4191 40.7907 11.4711 40.3402 13.1185C40.1073 13.9712 39.5364 17.4194 39.487 18.3039L39.4864 18.3051Z" fill="#FF5733"/>
<path fill-rule="evenodd" clip-rule="evenodd" d="M19.5959 22.3055C19.5959 22.3055 17.4985 22.2646 16.459 23.4575C15.683 24.3477 15.8091 25.7832 16.6538 26.5905C17.765 27.6522 21.9039 28.8145 21.9062 29.92C21.9085 31.2873 19.7305 30.7084 19.084 30.1074C18.2308 29.3138 18.1473 28.0589 16.7953 28.0771C14.4855 28.1084 16.0869 31.4816 19.9935 31.4873C21.2183 31.489 22.3862 31.2396 23.419 30.6005C24.4279 29.9762 24.7778 28.477 24.1319 27.5301C22.9572 25.8071 20.0049 25.5537 18.6154 24.4448C17.169 23.2911 19.5584 22.5753 20.5593 23.3246C21.3467 23.9143 21.5267 25.2901 22.8373 25.3702C24.6165 25.4782 24.0251 23.716 22.9958 23.0849C22.3328 22.6787 19.5959 22.3055 19.5959 22.3055Z" fill="#FF5733"/>
<path fill-rule="evenodd" clip-rule="evenodd" d="M28.8712 28.2805C28.9621 30.7045 28.4758 32.0156 27.776 28.827C27.4306 24.7249 28.7775 26.0025 28.8712 28.2805ZM27.501 25.4418C25.6389 26.2178 24.5874 26.716 25.06 29.2553C25.3764 30.955 27.6675 31.8298 29.1672 31.4083C34.1697 30.0012 30.9481 24.0063 27.5016 25.4424L27.501 25.4418Z" fill="#FF5733"/>
<path fill-rule="evenodd" clip-rule="evenodd" d="M40.4014 26.9058C40.4014 26.5484 40.5355 26.4763 40.6758 26.2655C43.8138 26.2655 40.4014 35.2093 40.4014 26.9058ZM40.4014 25.4418C35.1677 27.6187 38.9068 32.5172 42.2136 31.3714C47.2933 29.6115 43.6286 24.0989 40.4014 25.4418Z" fill="#FF5733"/>
<path fill-rule="evenodd" clip-rule="evenodd" d="M33.3598 26.3542C33.3626 27.7624 32.9281 30.2358 33.9836 31.0368C34.8703 31.71 37.9902 31.727 37.642 30.2779C37.183 30.3881 36.6132 30.6641 36.1672 30.479L36.0712 26.2661L37.4744 26.2655C37.4744 25.1544 37.0841 25.6736 36.132 25.5038C36.0241 24.9027 36.2928 23.3371 36.0173 22.9639C35.8207 22.6975 34.3545 22.8281 34.1074 23.4473C33.8546 24.0813 33.8705 24.9334 33.2576 25.3424C32.694 25.7191 32.4452 25.31 32.4395 25.9025C32.4327 26.5655 32.9082 26.0792 33.3598 26.3542Z" fill="#FF5733"/>
<path fill-rule="evenodd" clip-rule="evenodd" d="M20.2077 21.2363L19.8357 20.2433L18.8711 19.8032L19.8641 19.4312L20.3046 18.4666L20.6762 19.4597L21.6408 19.9002L20.6477 20.2717L20.2077 21.2363Z" fill="#FF5733"/>
<path fill-rule="evenodd" clip-rule="evenodd" d="M22.0992 22.2129L21.8714 21.6034L21.2793 21.3333L21.8888 21.105L22.1589 20.5134L22.3872 21.1229L22.9792 21.393L22.3697 21.6208L22.0992 22.2129Z" fill="#FF5733"/>
<path fill-rule="evenodd" clip-rule="evenodd" d="M22.8445 19.8896L22.6883 19.4726L22.2832 19.2875L22.7003 19.1313L22.8854 18.7262L23.0415 19.1432L23.4467 19.3283L23.0296 19.4845L22.8445 19.8896Z" fill="#FF5733"/>
<defs>
<linearGradient id="paint0_linear_1965_9109" x1="1.3861e-07" y1="16.0442" x2="65.5417" y2="25.4426" gradientUnits="userSpaceOnUse">
<stop offset="0.298" stop-color="#FF5733"/>
<stop offset="0.598" stop-color="white"/>
</linearGradient>
</defs>
</svg>
